# xmcd CD database file
#
# Track frame offsets:
#	150
#	13090
#	31175
#	58050
#	77301
#	98345
#	118417
#	136565
#	156252
#	173585
#	196965
#	216986
#	234646
#	260798
#	282181
#
# Disc length: 4029 seconds
#
# Revision: 2
# Processed by: cddbd v1.5.2PL0 Copyright (c) Steve Scherf et al.
# Submitted via: CDex 1.51
#
DISCID=c60fbb0f
DTITLE=Jowell and Randy - El Momento
DYEAR=2010
DGENRE=Latin
TTITLE0=Intro "Mi Momento"
TTITLE1=Goodbye
TTITLE2=Suave y Lento
TTITLE3=No Fue Una Noche Normal
TTITLE4=Un Booty Nuevo
TTITLE5=Chica De Novela
TTITLE6=Dile A EL
TTITLE7=Amanece
TTITLE8=Loco
TTITLE9=Hacerlo Así
TTITLE10=Mi Dama De Colombia
TTITLE11=Sólo Por Ti
TTITLE12=Qui+en Tiene Más Flow?
TTITLE13=Su Mamá No Sabe Ná
TTITLE14=We From The Bled
EXTD=YEAR: 2010
EXTT0=
EXTT1=
EXTT2=
EXTT3=
EXTT4=
EXTT5=
EXTT6=
EXTT7=
EXTT8=
EXTT9=
EXTT10=
EXTT11=
EXTT12=
EXTT13=
EXTT14=
PLAYORDER=
